<?xml version="1.0" encoding="UTF-8" standalone="no"?>
<!-- Created with Inkscape (http://www.inkscape.org/) -->

<svg
   xmlns:dc="http://purl.org/dc/elements/1.1/"
   xmlns:cc="http://creativecommons.org/ns#"
   xmlns:rdf="http://www.w3.org/1999/02/22-rdf-syntax-ns#"
   xmlns:svg="http://www.w3.org/2000/svg"
   xmlns="http://www.w3.org/2000/svg"
   xmlns:sodipodi="http://sodipodi.sourceforge.net/DTD/sodipodi-0.dtd"
   xmlns:inkscape="http://www.inkscape.org/namespaces/inkscape"
   width="744.09448819"
   height="1052.3622047"
   id="svg2"
   version="1.1"
   inkscape:version="0.48.2 r9819"
   sodipodi:docname="New document 1">
  <defs
     id="defs4" />
  <sodipodi:namedview
     id="base"
     pagecolor="#ffffff"
     bordercolor="#666666"
     borderopacity="1.0"
     inkscape:pageopacity="0.0"
     inkscape:pageshadow="2"
     inkscape:zoom="0.98994949"
     inkscape:cx="93.68503"
     inkscape:cy="508.60877"
     inkscape:document-units="px"
     inkscape:current-layer="layer2"
     showgrid="false"
     showguides="true"
     inkscape:guide-bbox="true"
     inkscape:window-width="1920"
     inkscape:window-height="1017"
     inkscape:window-x="-8"
     inkscape:window-y="-8"
     inkscape:window-maximized="1" />
  <metadata
     id="metadata7">
    <rdf:RDF>
      <cc:Work
         rdf:about="">
        <dc:format>image/svg+xml</dc:format>
        <dc:type
           rdf:resource="http://purl.org/dc/dcmitype/StillImage" />
        <dc:title></dc:title>
      </cc:Work>
    </rdf:RDF>
  </metadata>
  <g
     inkscape:groupmode="layer"
     id="layer2"
     inkscape:label="Layer">
    <path
       style="fill:#e9c6af;stroke:#000000;stroke-width:1.02677393000000010px;stroke-linecap:butt;stroke-linejoin:miter;stroke-opacity:0"
       d="m 376.30589,628.34601 c 2.86458,94.64221 0.72917,193.42619 17.52232,285.43273 13.7381,-91.8575 12.47619,-190.86895 17.64286,-286.11517 -8.03125,0.60401 -27.13393,0.0784 -35.16518,0.68244 z"
       id="path3764"
       inkscape:connector-curvature="0"
       sodipodi:nodetypes="cccc" />
  </g>
  <g
     inkscape:label="Layer 1"
     inkscape:groupmode="layer"
     id="layer1">
    <path
       style="fill:#ffb380;fill-opacity:1;stroke:none"
       d="m 393.74085,145.91514 c -46.97532,0.67964 -84.98321,50.26066 -106.95651,91.78555 -53.09186,100.33241 -111.59412,239.61446 -37.99969,338.41404 50.44915,38.0734 84.86297,68.85589 141.63135,62.91401 72.11399,3.62127 100.74986,-17.17601 138.94614,-57.66698 90.90639,-94.78002 28.11274,-243.81553 -25.56774,-346.40014 -21.87857,-41.81043 -62.86967,-89.72914 -110.05355,-89.04648 z"
       id="path2985"
       inkscape:connector-curvature="0"
       sodipodi:nodetypes="aacccaa" />
    <path
       style="fill:#e9c6af;stroke:#000000;stroke-width:1.04720306000000000px;stroke-linecap:butt;stroke-linejoin:miter;stroke-opacity:0"
       d="m 502.9473,605.5987 c 21.72814,7.25742 51.86775,44.75882 61.65196,67.23781 31.96993,73.45011 31.92684,158.96902 47.90625,238.4494 8.98958,-70.02466 25.5485,-139.37595 26.96875,-210.074 0.96868,-48.21938 -8.5905,-92.8447 -28.96637,-135.58745 -20.21386,-42.40293 -74.58195,-241.5162 -110.61767,-269.63541 -3.81721,29.29205 10.2843,54.87228 12.73686,114.70501 2.88823,70.46146 -5.18448,160.40913 -9.67978,194.90464 z"
       id="path2992"
       inkscape:connector-curvature="0"
       sodipodi:nodetypes="cscsscsc" />
    <path
       style="fill:#e9c6af;stroke:#000000;stroke-width:1.04720306000000000px;stroke-linecap:butt;stroke-linejoin:miter;stroke-opacity:0"
       d="m 293.81841,608.80552 c -21.72814,7.25742 -51.86775,44.75882 -61.65196,67.23781 -31.96993,73.45011 -31.92684,158.96902 -47.90624,238.4494 -8.98958,-70.02466 -25.5485,-139.37595 -26.96875,-210.074 -0.96868,-48.21938 8.5905,-92.8447 28.96637,-135.58745 20.21385,-42.40293 74.58194,-241.5162 110.61766,-269.63541 3.81721,29.29205 -10.2843,54.87228 -12.73686,114.70501 -2.88823,70.46146 5.18448,160.40913 9.67978,194.90464 z"
       id="path2992-7"
       inkscape:connector-curvature="0"
       sodipodi:nodetypes="cscsscsc" />
  </g>
  <g
     inkscape:groupmode="layer"
     id="layer3"
     inkscape:label="Layer2" />
</svg>
