<?xml version="1.0" encoding="UTF-8" standalone="no"?>
<!-- Created with Inkscape (http://www.inkscape.org/) -->

<svg
   xmlns:dc="http://purl.org/dc/elements/1.1/"
   xmlns:cc="http://creativecommons.org/ns#"
   xmlns:rdf="http://www.w3.org/1999/02/22-rdf-syntax-ns#"
   xmlns:svg="http://www.w3.org/2000/svg"
   xmlns="http://www.w3.org/2000/svg"
   xmlns:sodipodi="http://sodipodi.sourceforge.net/DTD/sodipodi-0.dtd"
   xmlns:inkscape="http://www.inkscape.org/namespaces/inkscape"
   width="744.09448819"
   height="1052.3622047"
   id="svg2"
   version="1.1"
   inkscape:version="0.48.2 r9819"
   inkscape:export-filename="C:\Users\Rob\Documents\Toast\porridge1.png"
   inkscape:export-xdpi="7.3120484"
   inkscape:export-ydpi="7.3120484"
   sodipodi:docname="New document 1">
  <defs
     id="defs4">
    <inkscape:path-effect
       effect="spiro"
       id="path-effect3110"
       is_visible="true" />
    <inkscape:path-effect
       effect="spiro"
       id="path-effect3106"
       is_visible="true" />
    <inkscape:path-effect
       effect="spiro"
       id="path-effect3102"
       is_visible="true" />
    <inkscape:path-effect
       effect="spiro"
       id="path-effect3098"
       is_visible="true" />
  </defs>
  <sodipodi:namedview
     id="base"
     pagecolor="#ffffff"
     bordercolor="#666666"
     borderopacity="1.0"
     inkscape:pageopacity="0.0"
     inkscape:pageshadow="2"
     inkscape:zoom="0.98994949"
     inkscape:cx="199.95554"
     inkscape:cy="551.86353"
     inkscape:document-units="px"
     inkscape:current-layer="layer1"
     showgrid="false"
     inkscape:window-width="1920"
     inkscape:window-height="1017"
     inkscape:window-x="-8"
     inkscape:window-y="-8"
     inkscape:window-maximized="1" />
  <metadata
     id="metadata7">
    <rdf:RDF>
      <cc:Work
         rdf:about="">
        <dc:format>image/svg+xml</dc:format>
        <dc:type
           rdf:resource="http://purl.org/dc/dcmitype/StillImage" />
        <dc:title></dc:title>
      </cc:Work>
    </rdf:RDF>
  </metadata>
  <g
     inkscape:label="Layer 1"
     inkscape:groupmode="layer"
     id="layer1">
    <path
       style="fill:#ff0000;stroke:none;stroke-width:1.05135106999999990px;stroke-linecap:butt;stroke-linejoin:miter;stroke-opacity:1;fill-opacity:1"
       d="M 108.57143,263.12286 C 160.48622,200.96237 230.92382,152.71305 310,135.21932 c 88.76287,-19.63668 186.83979,2.24729 255.71429,61.58319 20.84396,17.95723 39.10599,39.25744 51.49438,63.82287 12.38838,24.56543 18.70374,52.52898 15.64847,79.87122 -2.12636,19.02922 -8.64471,37.24202 -14.48701,55.47661 -5.8423,18.23459 -11.09849,37.03368 -10.56375,56.17387 0.86965,31.12782 16.89187,60.00607 20.17295,90.9727 1.64054,15.48331 -0.14496,31.80352 -8.11024,45.18181 -3.98264,6.68915 -9.48148,12.52766 -16.15018,16.54444 -6.6687,4.01678 -14.52083,6.15986 -22.29034,5.66915 -7.54696,-0.47665 -14.85447,-3.42135 -20.90787,-7.95347 -6.05341,-4.53212 -10.87637,-10.60713 -14.33765,-17.33047 -6.92255,-13.44669 -8.35746,-29.08893 -7.61162,-44.19453 1.13175,-22.92123 6.96625,-45.48947 7.06177,-68.43843 0.0478,-11.47448 -1.37744,-23.06276 -5.42732,-33.79888 C 536.15601,428.06327 529.35881,418.19331 520,411.55413 c -12.63028,-8.95997 -29.64463,-11.3604 -44.28572,-6.31623 -13.12563,4.52206 -23.98635,14.65846 -30.48212,26.92778 -6.49577,12.26932 -8.793,26.52553 -7.70867,40.36588 2.16867,27.68072 17.15921,52.67413 33.90508,74.82138 16.51703,21.8446 35.11342,42.06832 51.3273,64.13887 16.21387,22.07054 30.18545,46.43786 35.81556,73.23899 5.91567,28.16047 2.29337,57.63057 -5.71429,85.26903 -4.71272,16.26597 -11.14554,32.4602 -22.3594,45.15039 -5.60693,6.3451 -12.37932,11.72695 -20.06477,15.28107 -7.68545,3.55413 -16.30191,5.23497 -24.71868,4.30983 -13.19466,-1.4503 -25.21718,-9.3088 -33.24485,-19.88041 -8.02767,-10.57161 -12.3071,-23.64775 -13.85681,-36.83111 -3.09943,-26.36671 4.19569,-52.69856 7.10166,-79.08729 4.81776,-43.74937 -2.50038,-88.04757 -14.27441,-130.45736 -11.77403,-42.4098 -27.96894,-83.448 -41.43988,-125.3497 -6.33295,-19.69878 -12.07475,-39.635 -15.71429,-60.00414 -1.44257,-8.07349 -2.56432,-16.25201 -5.16757,-24.02924 -2.60325,-7.77724 -6.84911,-15.25506 -13.40385,-20.18432 -5.62424,-4.22951 -12.75079,-6.3505 -19.78425,-6.12407 -7.03346,0.22644 -13.93908,2.75907 -19.59888,6.94088 -5.6598,4.1818 -10.07572,9.97463 -12.83638,16.44762 -2.76066,6.47299 -3.88429,13.6066 -3.49478,20.63291 0.60217,10.86256 4.76402,21.31388 10.62283,30.48079 5.85881,9.1669 13.37703,17.15502 21.20793,24.70715 15.6618,15.10427 33.23248,29.32248 42.45495,49.02976 9.7206,20.77172 8.74685,45.31805 1.87237,67.19716 -6.87448,21.87912 -19.19768,41.59337 -31.87237,60.70636 -9.92107,14.96064 -20.17999,29.79631 -27.93292,45.98706 -7.75293,16.19075 -12.95694,33.9852 -12.06708,51.91441 1.26999,25.58834 14.80924,49.15522 31.66589,68.44846 16.85666,19.29324 37.14207,35.24452 55.47697,53.13885 12.10292,11.8121 23.47547,24.63953 31.45323,39.55134 7.97776,14.9118 12.39792,32.13849 9.97534,48.8758 -2.28335,15.77536 -10.6678,30.46343 -22.60748,41.02372 -11.93969,10.56029 -27.28612,17.03572 -43.1068,18.98041 -18.21035,2.23843 -37.20617,-1.53609 -52.86318,-11.10091 -15.657,-9.56481 -27.78845,-24.95188 -32.85111,-42.58699 -5.19088,-18.08174 -2.98422,-37.37106 -0.3742,-56.0012 2.61002,-18.63015 5.57402,-37.68157 1.80277,-56.11177 -4.00116,-19.55377 -15.2269,-36.71743 -25.62027,-53.75671 -10.39336,-17.03929 -20.41317,-35.27008 -21.52258,-55.19816 -0.72648,-13.0497 2.47621,-26.10263 7.70891,-38.07933 5.23269,-11.97671 12.45064,-22.97771 20.05801,-33.60552 15.21473,-21.25564 32.52046,-42.04724 39.37593,-67.27208 6.03404,-22.20237 2.95572,-47.10362 -9.8936,-66.18895 -6.42466,-9.54267 -15.17361,-17.54444 -25.36865,-22.8736 -10.19504,-5.32916 -21.82603,-7.94984 -33.30918,-7.25986 -12.95352,0.77833 -25.51422,5.74801 -35.97617,13.4257 -10.46196,7.6777 -18.86502,17.98921 -24.98804,29.43072 -12.24605,22.88302 -15.2948,49.62472 -14.75007,75.57277 0.90128,42.93248 11.08871,85.52344 28.57143,124.74543 11.48371,25.76338 26.3627,51.14776 27.84244,79.3158 0.73987,14.08401 -2.1481,28.63903 -9.96543,40.37769 -3.90867,5.86933 -9.01579,10.96954 -15.03067,14.65028 -6.01489,3.68074 -12.94282,5.91786 -19.9892,6.19221 -11.35807,0.44223 -22.48551,-4.21548 -31.522,-11.11063 -9.03649,-6.89516 -16.21076,-15.92003 -22.76371,-25.20766 C 84.345171,769.75329 64.965549,715.22407 70,661.04496 c 5.576331,-60.01065 39.86742,-114.05881 48.57143,-173.69616 3.40912,-23.35827 2.63982,-47.99521 -7.14286,-69.47846 -5.12995,-11.26563 -12.554534,-21.29817 -19.442722,-31.58329 -6.888188,-10.28512 -13.37793,-21.12231 -16.271562,-33.158 -3.876834,-16.12519 -0.93543,-33.34307 5.636069,-48.57025 6.5715,-15.22718 16.590005,-28.70676 27.221075,-41.43594"
       id="path3096"
       inkscape:path-effect="#path-effect3098"
       inkscape:original-d="M 108.57143,263.12286 C 166.25881,206.02821 233.47661,148.30206 310,135.21932 c 86.21264,-14.73924 186.49266,2.89813 255.71429,61.58319 38.69952,32.80887 60.35274,90.30977 67.14285,143.69409 4.73264,37.20838 -18.09974,74.8701 -25.05076,111.65048 -10.06517,53.25848 21.94093,147.98722 -26.37781,158.3681 -24.89324,5.3481 -33.50221,-43.42505 -42.85714,-69.47847 C 523.98693,500.41897 550.59278,439.23444 520,411.55413 c -17.70242,-16.01714 -29.86524,-25.94669 -44.28572,-6.31623 -25.56175,34.79697 -19.64009,100.6289 -4.28571,142.11504 19.15801,51.76317 73.70651,83.45866 87.14286,137.37786 6.84725,27.47758 5.81836,59.77782 -5.71429,85.26903 -13.28379,29.36183 -38.51384,73.47739 -67.14285,64.74129 -41.5153,-12.66832 -28.39977,-89.95307 -40,-135.79881 C 428.3234,630.21108 406.07214,512.25759 390,443.13525 c -8.36902,-35.9931 -5.87151,-24.46949 -15.71429,-60.00414 -5.73097,-20.6901 -0.21138,-36.7063 -18.57142,-44.21356 -23.43755,-9.58343 -51.76607,10.62206 -55.71429,37.89734 -7.36072,50.8497 65.22841,53.70373 74.28571,104.2177 7.90426,44.08327 -15.18488,86.05255 -30,127.90352 -11.80424,33.3456 -43.97096,62.36409 -40,97.90147 5.73406,51.31595 61.74634,78.16527 87.14286,121.58731 16.30378,27.87562 41.42857,80.53187 41.42857,88.42714 0,7.89528 -37.41059,57.26129 -65.71428,60.00413 -32.7144,3.17028 -85.71429,-47.37169 -85.71429,-53.6879 0,-6.31623 8.67585,-75.60686 1.42857,-112.11297 -7.80642,-39.3226 -54.28571,-88.42714 -47.14285,-108.95487 7.14285,-20.52773 64.45974,-86.52939 67.14285,-138.95693 1.67805,-32.78874 -39.60183,-89.02981 -68.57143,-96.32241 -49.28602,-12.40691 -61.32241,64.86897 -75.71428,118.42919 -11.04869,41.11836 26.36202,81.92136 28.57143,124.74543 C 189.57765,757.18825 175.71429,844.21546 170,850.53168 164.28571,856.84791 128.89198,832.50135 115.71429,814.21339 85.411646,772.15949 68.571429,667.36119 70,661.04496 c 1.428571,-6.31621 43.46289,-113.35842 48.57143,-173.69616 1.96485,-23.20713 2.92803,-48.99988 -7.14286,-69.47846 C 98.179508,390.92915 79.946046,383.43443 75.714286,353.12905 72.141562,310.39751 99.007281,272.57081 108.57143,263.12286 z"
       inkscape:connector-curvature="0"
       sodipodi:nodetypes="cssssssssssssssssssssssssssssssssssscc" />
  </g>
</svg>
