<?xml version="1.0" encoding="UTF-8" standalone="no"?>
<!-- Created with Inkscape (http://www.inkscape.org/) -->

<svg
   xmlns:dc="http://purl.org/dc/elements/1.1/"
   xmlns:cc="http://creativecommons.org/ns#"
   xmlns:rdf="http://www.w3.org/1999/02/22-rdf-syntax-ns#"
   xmlns:svg="http://www.w3.org/2000/svg"
   xmlns="http://www.w3.org/2000/svg"
   xmlns:sodipodi="http://sodipodi.sourceforge.net/DTD/sodipodi-0.dtd"
   xmlns:inkscape="http://www.inkscape.org/namespaces/inkscape"
   width="744.09448819"
   height="1052.3622047"
   id="svg2"
   version="1.1"
   inkscape:version="0.48.2 r9819"
   sodipodi:docname="shreddieRocket.svg">
  <defs
     id="defs4" />
  <sodipodi:namedview
     id="base"
     pagecolor="#ffffff"
     bordercolor="#666666"
     borderopacity="1.0"
     inkscape:pageopacity="0.0"
     inkscape:pageshadow="2"
     inkscape:zoom="0.49497475"
     inkscape:cx="660.6407"
     inkscape:cy="471.75022"
     inkscape:document-units="px"
     inkscape:current-layer="layer1"
     showgrid="false"
     inkscape:window-width="1920"
     inkscape:window-height="1017"
     inkscape:window-x="-8"
     inkscape:window-y="-8"
     inkscape:window-maximized="1" />
  <metadata
     id="metadata7">
    <rdf:RDF>
      <cc:Work
         rdf:about="">
        <dc:format>image/svg+xml</dc:format>
        <dc:type
           rdf:resource="http://purl.org/dc/dcmitype/StillImage" />
        <dc:title></dc:title>
      </cc:Work>
    </rdf:RDF>
  </metadata>
  <g
     inkscape:label="Layer 1"
     inkscape:groupmode="layer"
     id="layer1">
    <rect
       style="fill:#e61400;fill-opacity:1;stroke:none"
       id="rect2999"
       width="149.50255"
       height="274.76151"
       x="268.70059"
       y="375.55997" />
    <path
       style="fill:#ef9608;stroke:#000000;stroke-width:0.63548976000000001px;stroke-linecap:butt;stroke-linejoin:miter;stroke-opacity:0;fill-opacity:1"
       d="m 270.89535,650.0435 c -13.18561,4.40413 -31.47568,27.16167 -37.41317,40.80292 -19.40079,44.57282 -52.70967,95.45938 -62.40669,143.69164 -5.45528,-42.49411 10.75999,-84.57958 14.94887,-127.48233 2.84407,-29.12906 7.23341,-55.33217 19.5984,-81.27039 12.26668,-25.73199 45.25967,-146.56285 67.12777,-163.62685 2.31645,17.77573 -0.18006,33.29896 -1.66838,69.60814 -1.75271,42.75917 -2.91475,97.34345 -0.1868,118.27687 z"
       id="path2992-7"
       inkscape:connector-curvature="0"
       sodipodi:nodetypes="cscsscsc" />
    <path
       style="fill:#ef9608;stroke:#000000;stroke-width:0.63548976000000001px;stroke-linecap:butt;stroke-linejoin:miter;stroke-opacity:0;fill-opacity:1"
       d="m 416.61472,649.97608 c 13.18561,4.40413 31.47568,27.16167 37.41317,40.80292 19.40079,44.57282 52.70967,95.45938 62.40669,143.69164 5.45528,-42.49411 -10.75999,-84.57958 -14.94887,-127.48233 -2.84407,-29.12906 -7.23341,-55.33217 -19.5984,-81.27039 -12.26668,-25.73199 -45.25967,-146.56284 -67.12777,-163.62684 -2.31645,17.77573 0.18006,33.29896 1.66838,69.60814 1.75271,42.75916 2.91475,97.34344 0.1868,118.27686 z"
       id="path2992-7-4"
       inkscape:connector-curvature="0"
       sodipodi:nodetypes="cscsscsc" />
    <path
       style="fill:#ef9608;stroke:#000000;stroke-width:1.16943931999999990px;stroke-linecap:butt;stroke-linejoin:miter;stroke-opacity:0;fill-opacity:1"
       d="m 328.65401,474.61288 c -1.14764,122.79759 -0.78606,239.04249 16.00709,358.39304 13.7381,-119.15722 15.47705,-235.37012 16.63271,-359.02576 0.0377,-4.03452 -9.78896,-11.70464 -16.57244,-11.67921 -6.78348,0.0254 -16.02965,8.27742 -16.06736,12.31193 z"
       id="path3764"
       inkscape:connector-curvature="0"
       sodipodi:nodetypes="scsss" />
  </g>
</svg>
